<svg width="232" height="241" viewBox="0 0 232 241" fill="none" xmlns="http://www.w3.org/2000/svg">
<path fill-rule="evenodd" clip-rule="evenodd" d="M110.062 2.39342C112.363 2.12654 113.111 1.49221 112.291 0.504012C112.06 0.22686 111.603 0.0297337 111.275 0.0660753C110.946 0.102417 109.907 0.193456 108.965 0.268342C107.098 0.417013 106.401 1.20405 107.322 2.12471C107.725 2.52777 108.364 2.59054 110.062 2.39342ZM122.109 1.64713C122.227 1.34171 122.119 0.846139 121.869 0.54586C121.565 0.178405 120.726 0 119.304 0C117.07 0 116.171 0.530442 116.584 1.60528C116.905 2.44371 121.79 2.48042 122.109 1.64713ZM130.236 2.93267C131.591 2.93707 132.196 2.07038 131.376 1.30133C130.633 0.604594 126.79 0.301012 126.293 0.899734C125.317 2.07625 126.957 2.92166 130.236 2.93267ZM99.7952 3.43558C102.308 3.15366 103.234 2.72123 103.079 1.90262C102.991 1.44229 102.541 1.27196 101.313 1.23489C98.3621 1.14532 97.0054 1.798 97.4943 3.07253C97.6834 3.56516 98.0813 3.62794 99.7952 3.43558ZM140.884 4.25933C141.713 3.45467 140.986 2.63569 139.078 2.22639C136.594 1.69375 135.839 1.73413 135.578 2.41471C135.244 3.28397 136.145 3.89738 138.392 4.32944C139.943 4.62752 140.521 4.611 140.884 4.25933ZM90.8203 5.11464C93.0195 4.62275 93.8209 4.02219 93.4765 3.12502C93.0794 2.08947 88.3836 3.02664 88.1604 4.18591C87.9324 5.3694 88.6159 5.60801 90.8203 5.11464ZM150.44 5.7978C150.353 5.19063 149.915 4.86723 148.711 4.51996C147.825 4.2641 146.834 3.97227 146.509 3.87132C145.66 3.60775 144.906 4.19472 145.059 4.99975C145.15 5.47623 145.848 5.89838 147.317 6.36422C149.746 7.134 150.611 6.97725 150.44 5.7978ZM82.0795 7.49925C83.777 7.00589 84.0633 6.79408 84.0633 6.0309C84.0633 5.29599 83.886 5.14438 83.0538 5.16824C82.4988 5.18402 81.3421 5.44576 80.4842 5.74934C79.2313 6.19278 78.9241 6.47654 78.9241 7.1887C78.9241 8.24775 79.3583 8.29033 82.0795 7.49925ZM159.684 9.15666C159.684 8.62108 159.231 8.20223 158.123 7.7151C155.607 6.60759 154.584 6.44387 154.33 7.1072C153.96 8.07008 154.32 8.51425 156.03 9.20732C158.33 10.1401 159.684 10.1214 159.684 9.15666ZM72.7669 10.8889C75.0542 9.87725 75.5127 9.38168 74.8729 8.61043C74.2929 7.91186 73.9702 7.95077 71.6741 8.99404C70.2442 9.64378 69.7468 10.0678 69.7468 10.6364C69.7468 11.8052 70.5445 11.8716 72.7669 10.8889ZM168.494 13.108C168.494 12.4527 168.046 12.0471 166.467 11.2726C163.822 9.97563 163.354 10.0035 163.354 11.4579C163.354 11.9315 163.959 12.4289 165.282 13.0449C167.737 14.1883 168.494 14.203 168.494 13.108ZM64.2757 14.8491C65.7529 14.1006 66.0994 13.7526 66.0073 13.1091C65.8473 11.9895 65.0995 11.9935 62.8639 13.1253C61.3831 13.8752 60.9367 14.2963 60.9367 14.9431C60.9367 16.0704 61.9201 16.0429 64.2757 14.8491ZM113.771 14.4504C114.692 14.2658 114.913 14.0544 114.826 13.4409C114.728 12.7508 114.439 12.6524 112.232 12.5559C110.262 12.4696 109.704 12.5643 109.532 13.0148C108.947 14.5385 110.574 15.0895 113.771 14.4504ZM122.448 14.6145C124.105 14.5099 124.26 14.4218 124.26 13.5823C124.26 12.6976 124.163 12.6605 121.598 12.5566C118.969 12.4502 118.937 12.4601 118.937 13.3756C118.937 14.4827 119.788 14.783 122.448 14.6145ZM102.051 15.4702C104.472 15.3127 105.354 14.9031 105.354 13.9365C105.354 13.3081 105.106 13.2181 103.427 13.2383C100.806 13.2703 99.7651 13.7247 99.9142 14.7731C100.022 15.537 100.188 15.591 102.051 15.4702ZM133.804 14.6872C133.804 13.9685 133.568 13.7225 132.703 13.5375C132.097 13.4079 130.899 13.2824 130.041 13.2585C128.613 13.2189 128.481 13.2923 128.481 14.1259C128.481 15.1538 129.038 15.3755 131.968 15.5143C133.703 15.5965 133.804 15.551 133.804 14.6872ZM94.25 16.9154C95.548 16.5619 95.8101 16.3387 95.8101 15.5869C95.8101 14.8388 95.6365 14.6887 94.8006 14.7129C94.2456 14.7294 93.0478 14.9357 92.1392 15.1718C90.7366 15.5367 90.4874 15.7397 90.4874 16.519C90.4874 17.3046 90.6459 17.4297 91.5886 17.3883C92.1943 17.3618 93.3921 17.1489 94.25 16.9154ZM143.532 16.7591C143.532 16.0113 142.843 15.5796 140.891 15.1035C138.666 14.5609 138.412 14.573 138.158 15.2342C137.767 16.2532 138.307 16.7484 140.343 17.2366C142.5 17.7542 143.532 17.5997 143.532 16.7591ZM174.519 17.9396C177.691 19.6044 178.333 17.8739 175.284 15.8788C173.252 14.5488 172.357 14.3869 172.011 15.2874C171.712 16.0682 172.459 16.8589 174.519 17.9396ZM55.618 19.7259C56.7982 18.9539 57.4494 18.2682 57.4494 17.7987C57.4494 16.6849 56.2086 16.7877 54.2373 18.0648C52.9702 18.8856 52.4937 19.4307 52.4937 20.0592C52.4937 21.2687 53.4092 21.1711 55.618 19.7259ZM86.6329 18.0453C86.6329 17.6529 86.3716 17.2315 86.0522 17.1089C85.7328 16.9863 85.4439 16.8971 85.4098 16.9103C85.376 16.9239 84.3985 17.2862 83.2374 17.7157C81.4584 18.3739 81.1266 18.6375 81.1266 19.3918C81.1266 20.2141 81.2378 20.2714 82.5032 20.0999C84.7365 19.7975 86.6329 18.854 86.6329 18.0453ZM152.643 19.3955C152.557 18.8089 152.039 18.4271 150.69 17.9539C147.914 16.9804 147.203 17.0656 147.203 18.3709C147.203 18.8023 147.89 19.2564 149.398 19.8202C151.844 20.7346 152.821 20.6069 152.643 19.3955ZM184.825 24.0968C185.97 23.6574 185.407 22.4298 183.457 21.1175C182.4 20.4054 181.344 19.8228 181.111 19.8228C180.757 19.8228 180.241 20.5966 180.241 21.1256C180.241 21.6043 184.361 24.2748 184.825 24.0968ZM72.4607 23.8281C73.2349 24.4705 77.231 22.482 77.3896 21.3756C77.4876 20.6917 77.3368 20.5599 76.4719 20.5742C75.1541 20.5959 71.9494 22.2478 71.9494 22.9052C71.9494 23.1794 72.1795 23.5946 72.4607 23.8281ZM161.519 23.3054C161.519 22.5381 161.172 22.2298 159.454 21.4699C156.758 20.2776 156.38 20.3106 156.38 21.7397C156.38 22.2272 156.981 22.6989 158.409 23.3303C160.996 24.4742 161.519 24.4701 161.519 23.3054ZM47.364 25.4345C48.6238 24.4936 49.1899 23.8108 49.1899 23.2319C49.1899 22.0216 48.2186 22.1795 46.1614 23.7235C44.9276 24.6496 44.4177 25.2906 44.4177 25.915C44.4177 27.1642 45.2224 27.0331 47.364 25.4345ZM66.58 27.4619C68.1673 26.5504 68.6485 26.0809 68.5681 25.5226C68.4136 24.4496 67.5972 24.4727 65.5253 25.6081C64.2923 26.2839 63.6513 26.8856 63.5724 27.4413C63.3859 28.7541 64.3194 28.7607 66.58 27.4619ZM170.263 27.8084C170.184 27.2516 169.545 26.6536 168.31 25.98C166.014 24.7282 165.19 24.6812 165.19 25.8023C165.19 26.4388 165.695 26.9329 167.27 27.8374C169.517 29.1281 170.449 29.1193 170.263 27.8084ZM193.348 29.8527C193.516 29.4144 193.029 28.7262 191.659 27.4667C189.573 25.5486 189.417 25.4771 188.757 26.1367C188.01 26.8837 188.249 27.3466 190.201 28.935C192.242 30.5954 192.98 30.8105 193.348 29.8527ZM37.2944 33.2858C38.1045 33.5967 41.6726 30.0286 41.3617 29.2184C41.0042 28.2871 40.2392 28.5243 38.4125 30.1325C36.6762 31.661 36.243 32.8823 37.2944 33.2858ZM55.9847 33.6793C57.0074 33.8063 60.28 31.3277 60.1298 30.5399C59.9276 29.4772 58.6255 29.6839 56.7893 31.0704C54.9675 32.4459 54.6386 33.5123 55.9847 33.6793ZM178.295 34.0398C179.02 33.3148 178.64 32.6599 176.665 31.229C174.775 29.8605 173.631 29.7467 173.637 30.9272C173.64 31.5127 174.238 32.1672 175.69 33.1749C177.521 34.4465 177.796 34.5379 178.295 34.0398ZM200.219 37.3212C201.196 36.946 200.872 36.0228 199.095 34.1235C197.361 32.2693 197.286 32.2238 196.484 32.5468C195.589 32.9084 196.049 34.0067 197.832 35.7632C199.024 36.9368 199.837 37.4676 200.219 37.3212ZM32.3691 38.9499C33.3625 37.8692 34.1242 36.7184 34.0614 36.3924C33.8448 35.2669 32.8405 35.5937 31.1067 37.3538C29.2107 39.2789 29.0642 39.6716 29.9647 40.4187C30.4878 40.8529 30.7874 40.6701 32.3691 38.9499ZM50.2812 38.6192C51.7052 37.3443 52.1919 36.6747 52.0205 36.228C51.6593 35.286 50.928 35.4721 49.0474 36.9842C47.7413 38.0341 47.3592 38.5718 47.4367 39.2502C47.5956 40.6466 48.1569 40.5222 50.2812 38.6192ZM185.717 40.3797C187.053 40.3797 186.587 39.0685 184.686 37.4772C182.626 35.7519 181.709 35.558 181.709 36.8484C181.709 37.8872 184.538 40.3797 185.717 40.3797ZM207.015 44.9827C207.762 44.5205 207.396 43.2618 206.042 41.6425C204.663 39.9925 203.516 39.5641 203.135 40.556C202.781 41.4788 206.26 45.4489 207.015 44.9827ZM42.8712 45.4059C44.62 43.6567 44.845 43.2808 44.4372 42.7893C44.1751 42.4736 43.7471 42.2152 43.4864 42.2152C42.8106 42.2152 40.0127 45.4922 40.0127 46.2833C40.0127 47.661 40.883 47.3937 42.8712 45.4059ZM193.773 46.5348C193.771 46.1496 193.397 45.7663 192.121 44.4019C190.491 42.6601 189.831 42.2919 189.295 42.8271C188.708 43.4141 189.169 44.3781 190.807 45.9918C192.679 47.8357 193.244 48.0681 193.6 47.1408C193.7 46.8798 193.774 46.7071 193.773 46.5348ZM23.8083 48.4348C24.5788 48.408 27.1646 45.0359 27.1646 44.0576C27.1646 42.6807 25.8441 43.2405 24.2653 45.287C22.732 47.2744 22.5572 48.4781 23.8083 48.4348ZM213.059 53.1089C213.992 52.7506 213.746 51.7132 212.267 49.768C210.724 47.7391 210.087 47.3676 209.734 48.2894C209.277 49.4795 212.049 53.4966 213.059 53.1089ZM36.924 52.0811C37.7316 50.9156 37.8241 50.5668 37.4456 50.1109C37.1931 49.8062 36.8612 49.557 36.7089 49.557C36.3759 49.557 33.038 53.5597 33.038 53.9591C33.038 54.1133 33.2905 54.4488 33.5993 54.705C34.0647 55.0916 34.3129 55.0281 35.0518 54.3339C35.5419 53.8736 36.3844 52.8597 36.924 52.0811ZM199.509 55.3272C200.72 55.194 200.541 54.1966 198.945 52.1923C196.272 48.8349 194.805 50.1634 197.402 53.5905C198.337 54.8243 199.013 55.3816 199.509 55.3272ZM19.9571 54.69C21.1234 52.8795 21.2952 52.3902 20.9215 51.9401C20.6715 51.6387 20.3477 51.3924 20.202 51.3924C19.4561 51.3924 16.751 55.6503 17.0318 56.3822C17.4576 57.492 18.564 56.8517 19.9571 54.69ZM144.882 70.6914C148.65 66.12 146.766 58.7577 141.366 56.9494C137.456 55.64 132.875 57.1348 130.873 60.3736C129.893 61.958 129.767 62.4844 129.774 64.9461C129.791 70.4851 132.841 73.4302 138.539 73.4097C141.311 73.3997 143.381 72.5125 144.882 70.6914ZM218.445 62.038C219.509 62.038 219.335 60.7238 217.973 58.4768C216.735 56.4336 215.481 55.8481 215.481 57.3128C215.481 58.5976 217.639 62.038 218.445 62.038ZM52.3101 60.7532V58.9177V57.0823L46.5285 56.9813L40.7468 56.88V58.8884V60.8963L42.4905 61.0083L44.2342 61.1203L44.3351 67.0854L44.4361 73.0506H46.6294H48.8228V67.0139V60.9771L50.5665 60.8651L52.3101 60.7532ZM64.2405 60.9367V58.9177V56.8987H59.4684H54.6962V64.9747V73.0506H59.4684H64.2405V71.2321V69.4132L61.7627 69.3049L59.2848 69.1962V67.9114V66.6266L61.1203 66.5906C62.7407 66.5589 63.4082 66.5629 63.6827 66.2364C63.8884 65.9917 63.8734 65.5613 63.8734 64.7911V63.1392H61.4873H59.1013V62.038V60.9367H61.6709H64.2405ZM80.3843 62.3808C80.37 60.7726 79.0522 58.4537 77.76 57.7614C76.8338 57.2651 75.4488 57.0724 72.0411 56.9648L67.5443 56.8231V64.9369V73.0506H69.9304H72.3165V70.481C72.3165 68.6793 72.4538 67.9063 72.7753 67.8941C75.1309 67.8049 76.9381 67.4577 77.8492 66.9199C79.0434 66.2143 80.3972 63.7908 80.3843 62.3808ZM93.2658 66.9805C96.5953 65.2588 96.6537 59.8997 93.3664 57.7445C92.5654 57.2196 91.4201 57.0555 87.8425 56.9527L83.3291 56.8231V64.9369V73.0506H85.5316H87.7342V70.5331V68.016L89.9459 67.7847C91.1624 67.6577 92.6565 67.2958 93.2658 66.9805ZM103.335 66.2595L103.233 61.5791L103.13 56.8987H100.938H98.7468V64.9747V73.0506L101.041 73.0393L103.335 73.0282L105.354 69.8577C106.465 68.114 107.695 66.1365 108.088 65.464C108.481 64.7911 108.935 64.2405 109.098 64.2405C109.26 64.2405 109.392 66.2228 109.392 68.6456V73.0506H111.595H113.797V64.9747V56.8987H111.633H109.468L106.402 61.5791L103.335 66.2595ZM127.747 60.9367V58.9177V56.8987H122.057H116.367V58.9177V60.9367H118.019H119.671V66.9937V73.0506H122.057H124.443V66.9937V60.9367H126.095H127.747ZM161.72 59.2595C161.376 58.7349 160.406 57.9927 159.563 57.6102C158.355 57.0617 157.159 56.9131 153.902 56.9068L149.772 56.8987V64.9747V73.0506H152.158H154.544V70.481C154.544 68.6793 154.682 67.9063 155.003 67.8941C159.122 67.7381 161.057 66.8725 162.073 64.7335C162.82 63.1583 162.661 60.6966 161.72 59.2595ZM170.237 65.7041C170.086 65.7067 169.962 63.7266 169.962 61.3038V56.8987H167.76H165.557V64.9923V73.0855L167.809 72.9765L170.061 72.8671L172.732 68.697C174.2 66.4034 175.582 64.347 175.802 64.1267C176.091 63.8378 176.203 65.0235 176.203 68.3886V73.0506H178.405H180.608V64.9747V56.8987H178.39H176.172L173.342 61.299C171.786 63.7192 170.389 65.7015 170.237 65.7041ZM196.025 73.0506V64.9747V56.8987L192.079 56.9068C185.949 56.9193 183.911 58.2452 183.911 62.2215C183.911 64.3591 184.687 65.87 186.105 66.4981C186.716 66.7683 187.215 67.0766 187.215 67.1831C187.215 67.2896 186.389 68.5094 185.38 69.894C184.37 71.2787 183.544 72.5635 183.544 72.7485C183.544 72.9339 184.568 73.0363 185.818 72.9765L188.093 72.8671L189.578 70.3892C190.395 69.0262 191.189 67.9114 191.342 67.9114C191.495 67.9114 191.62 69.0677 191.62 70.481V73.0506H193.823H196.025ZM27.97 63.4325C28.7236 63.5775 31.2025 60.0484 31.2025 58.8307C31.2025 57.2361 29.8817 57.8546 28.4692 60.1108C27.0834 62.3247 26.9465 63.2354 27.97 63.4325ZM206.304 63.2743C206.304 62.5853 205.06 60.4033 203.978 59.193C203.201 58.3241 202.912 58.21 202.511 58.6119C202.002 59.1204 202.307 60.0895 203.561 61.951C204.852 63.8694 206.304 64.5698 206.304 63.2743ZM12.992 65.9585C13.7508 65.667 15.4886 62.1646 15.3476 61.2106C15.1854 60.1141 14.4537 60.0161 13.819 61.0057C12.4241 63.1804 11.6029 65.3447 12.0159 65.7577C12.2446 65.9864 12.684 66.0767 12.992 65.9585ZM134.449 65.4284C134.282 62.8261 135.175 61.1437 137.002 60.617C137.666 60.4254 138.255 60.2539 138.312 60.2356C138.8 60.0796 141.033 61.4382 141.527 62.1911C142.406 63.5328 142.353 66.6112 141.43 67.8589C139.865 69.9748 137.131 70.2453 135.446 68.4514C134.798 67.7624 134.55 67.0109 134.449 65.4284ZM73.2584 64.2405C72.373 64.2405 72.3165 64.1308 72.3165 62.4051C72.3165 60.5733 72.319 60.5696 73.5278 60.5696C75.0058 60.5696 75.6203 61.1265 75.6203 62.4656C75.6203 63.5941 74.7602 64.2405 73.2584 64.2405ZM88.7653 64.2405C87.7727 64.2405 87.7342 64.1719 87.7342 62.4051C87.7342 60.5777 87.7397 60.5696 88.9272 60.5751C90.5431 60.5828 91.1297 61.027 91.1297 62.2428C91.1297 63.4535 90.1981 64.2405 88.7653 64.2405ZM155.486 64.2405C154.601 64.2405 154.544 64.1308 154.544 62.4051C154.544 60.5733 154.547 60.5696 155.756 60.5696C157.234 60.5696 157.848 61.1265 157.848 62.4656C157.848 63.5941 156.988 64.2405 155.486 64.2405ZM188.84 63.9597C188.079 63.4384 187.927 62.31 188.5 61.4356C188.916 60.8005 189.408 60.5696 190.344 60.5696H191.62V62.4051C191.62 64.2324 191.615 64.2405 190.427 64.235C189.771 64.2317 189.057 64.108 188.84 63.9597ZM223.269 71.5823C224.231 71.5823 224.104 70.129 222.93 67.7359C221.936 65.7096 220.93 65.1061 220.484 66.2687C220.152 67.1335 222.484 71.5823 223.269 71.5823ZM22.9137 72.6835C23.6398 72.6835 26.1429 68.1794 25.8463 67.4066C25.3728 66.1721 24.3758 66.805 23.1343 69.129C21.895 71.449 21.8183 72.6835 22.9137 72.6835ZM210.43 73.0506C211.561 73.0506 211.541 72.123 210.361 69.785C209.548 68.1742 209.025 67.5443 208.501 67.5443C207.487 67.5443 207.565 68.5747 208.766 71.0236C209.43 72.3767 209.983 73.0506 210.43 73.0506ZM8.09908 75.6203C9.13463 75.6203 11.2799 71.0618 10.6188 70.2652C9.79649 69.2744 9.33249 69.6815 8.12257 72.4548C7.12115 74.7506 7.11491 75.6203 8.09908 75.6203ZM226.577 79.2911C227.741 79.2911 227.745 79.1201 226.652 76.4462C226.119 75.1423 225.714 74.9738 225.047 75.777C224.712 76.1812 224.715 76.643 225.061 77.796C225.451 79.0995 225.645 79.2911 226.577 79.2911ZM20.9483 78.3103C21.1531 77.7707 21.2368 77.1099 21.134 76.8419C20.7721 75.8981 19.5442 76.3067 19.1246 77.5104C18.5578 79.1362 18.6033 79.2911 19.6484 79.2911C20.3151 79.2911 20.6799 79.0158 20.9483 78.3103ZM213.487 79.2911C214.386 79.2911 214.59 78.7978 214.157 77.6693C213.909 77.0229 212.715 76.8834 212.359 77.459C211.903 78.1972 212.576 79.2911 213.487 79.2911ZM232 84.7975V82.962V81.1266H116H0V82.962V84.7975H116H232ZM155.278 96.5443V93.6076V90.6709H152.892H150.506V93.5518V96.4327L146.744 96.6632C139.574 97.1026 134.491 99.0376 130.652 102.789C127.121 106.24 125.393 110.585 125.399 116C125.405 121.95 127.347 126.694 131.206 130.186C135.141 133.747 139.626 135.383 146.377 135.719L150.506 135.925V139.557V143.19L152.88 143.124L155.253 143.059L155.358 139.533L155.462 136.006L159.5 135.776C164.476 135.492 166.365 135.038 170.242 133.198C174.106 131.365 176.746 128.798 178.562 125.109C181.808 118.515 181.023 110.066 176.639 104.4C172.976 99.666 165.184 96.5443 157.032 96.5443H155.278ZM107.069 112.447C104.932 102.44 98.2289 95.0837 88.7661 92.3599C82.4892 90.5531 74.8762 90.8996 69.2344 93.2482C63.1576 95.7778 57.8884 100.847 55.5038 106.456C53.7576 110.562 53.4378 112.33 53.4444 117.835C53.4499 122.631 53.5483 123.449 54.4381 126.095C58.3487 137.726 67.6882 144.256 80.4254 144.263C88.4126 144.268 94.5004 141.894 99.7005 136.746C103.014 133.467 104.774 130.623 106.282 126.113C107.554 122.308 107.898 116.331 107.069 112.447ZM9.48006 115.266C9.3134 115.266 9.17722 110.145 9.17722 103.886V92.5063H6.79114H4.40506V117.853V143.199L6.69937 143.09L8.99367 142.981L9.17722 130.905L9.36076 118.828L13.9494 123.764C16.4731 126.479 21.0984 131.496 24.2278 134.913C27.3573 138.33 30.3711 141.597 30.925 142.172C31.8905 143.173 32.0468 143.21 34.6939 143.062C36.2129 142.977 37.5352 142.828 37.6328 142.73C37.7301 142.633 32.4826 136.89 25.9715 129.969C19.4601 123.047 14.0881 117.268 14.0331 117.127C13.978 116.985 19.1404 111.555 25.5046 105.059C31.8688 98.564 37.076 93.0823 37.076 92.8778C37.076 92.6609 35.9567 92.5063 34.3863 92.5063H31.697L28.9651 95.3513C15.3469 109.532 9.73702 115.266 9.48006 115.266ZM227.595 96.5443V94.5253V92.5063H214.01H200.425L200.52 117.744L200.614 142.981H214.013H227.411L227.522 141.054L227.633 139.127H216.601H205.57V127.93V116.734H216.215H226.861V114.715V112.696H216.215H205.57V104.62V96.5443H216.582H227.595ZM58.4581 116.554C59.0128 105.687 66.1879 97.3123 76.545 95.4438C79.0162 94.9978 84.162 95.2918 86.6329 96.0201C93.6315 98.0828 98.8621 103.202 101.204 110.281C102.052 112.846 102.187 113.868 102.198 117.835C102.21 122.026 102.115 122.696 101.1 125.56C98.535 132.795 93.1293 137.88 86.097 139.671C84.8907 139.978 82.331 140.228 80.3924 140.228C73.8814 140.228 69.3922 138.411 64.9747 133.99C60.3016 129.312 58.1068 123.44 58.4581 116.554ZM130.658 113.803C131.844 106.161 136.408 102.095 145.012 101.02C146.52 100.831 148.373 100.656 149.13 100.63L150.506 100.582V116.239V131.896L147.111 131.666C143.23 131.403 138.898 130.305 136.71 129.029C134.73 127.874 132.639 125.519 131.747 123.438C130.66 120.901 130.195 116.787 130.658 113.803ZM155.278 131.896V116.239V100.582H156.114C160.508 100.582 166.953 102.309 169.755 104.237C175.146 107.946 177.015 116.619 173.956 123.731C171.981 128.321 166.563 131.135 158.674 131.667L155.278 131.896ZM232 153.81V152.158V150.506H116H0V152.158V153.81H116H232ZM6.50187 160.681C7.00112 160.181 6.98496 159.897 6.3466 157.976C5.73686 156.141 5.49055 155.812 4.65211 155.713C4.1125 155.649 3.67089 155.673 3.67089 155.766C3.67089 156.443 5.23835 160.803 5.55148 160.996C5.76733 161.13 6.19499 160.988 6.50187 160.681ZM213.508 163.525C214.251 163.057 215.875 159.078 215.607 158.381C215.495 158.088 215.116 157.848 214.766 157.848C213.893 157.848 211.888 162.845 212.511 163.467C212.797 163.754 213.116 163.773 213.508 163.525ZM20.3789 164.456C21.2842 164.456 21.2673 163.303 20.3279 160.956C19.6422 159.243 19.1899 158.582 18.7043 158.582C17.5868 158.582 17.5109 159.254 18.3801 161.448C19.3375 163.863 19.7314 164.456 20.3789 164.456ZM227.332 162.49C227.717 161.337 227.938 160.151 227.825 159.855C227.486 158.974 226.503 159.242 226.102 160.326C225.897 160.881 225.463 162.045 225.137 162.912C224.682 164.125 224.646 164.59 224.979 164.923C225.71 165.654 226.577 164.757 227.332 162.49ZM111.595 167.131C111.595 165.737 110.921 164.337 109.819 163.446C109.084 162.851 108.847 162.868 108.278 163.553C107.889 164.023 107.944 164.302 108.601 165.19C109.633 166.587 109.606 168.18 108.529 169.475C107.17 171.108 106.823 171.992 106.823 173.811C106.823 176.404 108.548 179.073 109.89 178.558C110.698 178.248 110.651 177.436 109.759 176.303C108.71 174.969 108.772 172.526 109.888 171.183C111.205 169.601 111.595 168.674 111.595 167.131ZM116.642 170.77C118.38 168.247 118.475 166.281 116.956 164.29C115.212 162.003 113.797 163.023 115.215 165.545C116.242 167.372 116.21 167.762 114.898 169.412C112.849 171.99 112.6 174.655 114.168 177.225C115.061 178.688 115.874 179.056 116.604 178.325C117.09 177.84 117.044 177.62 116.209 176.388C114.899 174.459 115 173.155 116.642 170.77ZM122.369 171.183C124.397 168.746 124.645 166.565 123.145 164.357C122.14 162.879 121.499 162.663 120.759 163.553C120.37 164.023 120.425 164.302 121.082 165.19C122.114 166.587 122.087 168.18 121.01 169.475C119.679 171.075 119.304 171.987 119.304 173.62C119.304 176.26 121.092 179.151 122.41 178.645C123.185 178.347 123.117 177.418 122.241 176.303C121.191 174.969 121.253 172.526 122.369 171.183ZM10.4686 170.663C10.9671 170.165 10.9154 169.836 9.98114 167.556C8.93677 165.007 7.9449 164.148 7.47136 165.382C7.21733 166.043 8.59354 169.803 9.41179 170.683C9.85009 171.155 9.97967 171.152 10.4686 170.663ZM210.402 170.925C211.048 169.613 211.456 168.322 211.327 167.988C210.88 166.822 209.975 167.413 208.879 169.584C207.565 172.186 207.457 173.266 208.51 173.266C209.051 173.266 209.555 172.642 210.402 170.925ZM25.5795 173.54C26.1092 173.01 26.0413 172.746 24.8089 170.543C23.4779 168.163 22.5888 167.555 22.1417 168.72C21.9093 169.325 23.6453 172.967 24.5215 173.714C24.8776 174.017 25.1463 173.973 25.5795 173.54ZM221.693 174.935C222.356 174.526 223.924 171.168 223.924 170.158C223.924 169.474 223.731 169.228 223.194 169.228C222.648 169.228 222.181 169.85 221.349 171.684C220.385 173.812 220.306 174.21 220.76 174.664C221.048 174.952 221.468 175.074 221.693 174.935ZM14.7346 180.241C15.7198 180.241 15.595 178.944 14.3998 176.758C13.3815 174.895 12.2846 174.229 11.8973 175.238C11.567 176.099 13.9156 180.241 14.7346 180.241ZM161.484 178.644C160.621 177.905 159.326 177.137 158.606 176.937C156.857 176.451 156.071 176.493 154.547 177.154C152.919 177.86 151.608 179.085 151.608 179.898C151.608 181.023 152.684 180.998 154.281 179.835C156.183 178.45 157.945 178.538 159.905 180.116C162.116 181.895 163.426 182.442 165.477 182.442C168.542 182.443 171.797 180.703 171.797 179.064C171.797 177.959 170.791 177.893 169.572 178.919C167.275 180.852 163.931 180.738 161.484 178.644ZM71.5503 179.963C71.028 179.611 69.7979 178.786 68.817 178.13C66.0477 176.277 62.7751 176.608 60.5615 178.964C59.697 179.884 59.7859 180.975 60.7253 180.975C61.0255 180.975 61.8798 180.562 62.6235 180.057C64.684 178.659 66.3065 178.815 68.5865 180.63C71.296 182.787 73.4508 183.27 76.4128 182.382C77.1984 182.147 78.4567 181.416 79.2085 180.759C80.5198 179.612 80.5491 179.536 79.9266 178.899C79.395 178.354 79.1623 178.315 78.6418 178.683C75.8434 180.659 73.2709 181.123 71.5503 179.963ZM202.992 182.259C203.648 182.259 206.304 178.53 206.304 177.608C206.304 177.153 206.033 176.937 205.464 176.937C204.839 176.937 204.312 177.45 203.413 178.933C202.188 180.956 202.022 182.259 202.992 182.259ZM30.5601 182.807C31.5994 182.812 31.3314 181.34 29.9078 179.226C28.612 177.302 27.6943 176.82 27.2967 177.856C27.0016 178.625 29.7555 182.803 30.5601 182.807ZM216.216 184.192C216.931 184.328 219.241 180.499 219.085 179.437C218.874 178.004 218.12 178.331 216.771 180.441C215.424 182.546 215.209 184.001 216.216 184.192ZM132.152 182.7C132.152 181.832 131.954 180.923 131.711 180.681C131.193 180.163 100.36 180.044 99.55 180.557C99.1679 180.8 99.0923 182.864 99.1829 190.575L99.2975 200.288L100.675 203.074C102.166 206.088 105.273 209.356 107.942 210.718C112.636 213.113 118.222 213.092 123.218 210.663C125.907 209.355 129.239 205.807 130.503 202.904C131.513 200.587 131.635 200.458 133.051 200.223C139.115 199.214 142.017 192.962 138.786 187.867C137.69 186.139 134.69 184.278 132.998 184.278C132.246 184.278 132.152 184.103 132.152 182.7ZM102.234 199.88L102.117 191.528L102.001 183.177H115.608H129.215V189.918C129.215 197.159 128.904 199.691 127.712 202.153C126.615 204.42 123.882 206.967 121.139 208.281C119.008 209.302 118.401 209.423 115.449 209.416C112.662 209.408 111.82 209.256 110.062 208.439C107.285 207.148 104.994 204.968 103.479 202.175L102.234 199.88ZM20.5015 189.268C21.2489 188.807 20.9564 187.62 19.5871 185.558C18.1401 183.378 17.9473 183.258 17.2455 184.104C16.8655 184.562 16.9 184.886 17.433 185.876C18.4925 187.843 20.0397 189.554 20.5015 189.268ZM69.9623 187.561C69.2843 186.966 68.1379 186.231 67.4144 185.929C65.1659 184.99 63.336 185.317 61.0395 187.068C59.7213 188.074 59.5421 188.717 60.3853 189.417C60.8365 189.791 61.1702 189.694 62.2465 188.873C64.7162 186.989 66.1039 187.195 69.578 189.959C70.7244 190.871 71.3506 191.073 73.3773 191.184C75.4881 191.299 76.0666 191.179 77.8228 190.258C79.2541 189.508 79.8774 188.952 79.9648 188.348C80.1817 186.845 79.4552 186.634 77.8606 187.739C75.0395 189.694 72.3223 189.633 69.9623 187.561ZM162.369 187.895C161.801 187.361 160.757 186.576 160.051 186.153C158.083 184.973 155.493 185.102 153.307 186.488C151.955 187.346 151.585 187.782 151.675 188.412C151.83 189.497 152.953 189.661 153.935 188.741C155.903 186.897 157.877 187.026 160.508 189.17C162.464 190.765 164.6 191.425 166.758 191.102C168.886 190.782 171.797 188.96 171.797 187.946C171.797 186.751 170.888 186.711 169.196 187.831C167.933 188.666 167.22 188.867 165.516 188.867C163.735 188.867 163.24 188.714 162.369 187.895ZM196.78 190.435C197.479 190.57 200.5 186.933 200.349 186.139C200.111 184.891 198.795 185.37 197.375 187.221C195.96 189.066 195.743 190.236 196.78 190.435ZM36.8594 190.812C38.1255 190.63 37.9111 189.699 36.1377 187.674C34.4575 185.756 34.1161 185.525 33.6499 185.992C32.7605 186.881 35.507 191.006 36.8594 190.812ZM132.152 197.508V192.316V187.123L133.335 187.36C134.918 187.677 136.859 189.616 137.151 191.174C137.659 193.881 135.859 196.631 133.161 197.269L132.152 197.508ZM210.222 192.989C210.81 193.183 213.646 189.36 213.646 188.375C213.646 186.992 212.411 187.479 210.948 189.439C209.594 191.252 209.301 192.686 210.222 192.989ZM26.4917 197.494C27.5713 197.494 27.2989 196.186 25.8016 194.18C24.5138 192.456 23.4463 191.907 22.9478 192.714C22.4629 193.498 25.4257 197.494 26.4917 197.494ZM189.922 197.861C190.983 197.861 193.927 194.817 193.75 193.901C193.528 192.748 192.538 193.06 190.79 194.835C188.855 196.8 188.55 197.861 189.922 197.861ZM44.2158 198.243C45.0388 197.56 44.9662 197.378 43.0529 195.319C41.3852 193.525 40.7821 193.176 40.2575 193.701C39.6661 194.292 40.1371 195.258 41.8297 196.925C43.3748 198.447 43.7324 198.644 44.2158 198.243ZM203.967 200.614C204.969 200.614 207.481 197.647 207.331 196.64C207.137 195.332 206.429 195.58 204.687 197.569C202.904 199.604 202.665 200.614 203.967 200.614ZM33.5625 205.08C34.5845 204.688 34.1815 203.565 32.3831 201.793C30.4316 199.871 30.3729 199.844 29.7536 200.59C29.1924 201.267 29.5917 202.012 31.5146 203.875C32.4561 204.787 33.194 205.221 33.5625 205.08ZM182.245 204.697C183.067 205.013 186.539 201.932 186.405 201.005C186.232 199.797 185.317 199.974 183.453 201.577C181.71 203.075 181.233 204.309 182.245 204.697ZM51.3682 205.12C52.4874 204.904 51.9585 203.501 50.177 201.959C49.2057 201.118 48.2835 200.43 48.1275 200.43C47.6613 200.43 47.3544 200.879 47.3544 201.562C47.3544 202.382 50.6076 205.266 51.3682 205.12ZM196.792 208.139C197.756 208.139 200.879 204.979 200.722 204.162C200.503 203.026 199.504 203.348 197.765 205.113C195.891 207.016 195.53 208.139 196.792 208.139ZM178.59 207.818C178.697 207.54 178.597 207.085 178.367 206.808C177.811 206.139 177.785 206.147 175.56 207.664C173.613 208.992 173.073 210.15 174.2 210.583C174.822 210.821 178.272 208.649 178.59 207.818ZM59.6398 210.948C60.7377 210.526 60.168 209.42 58.1468 208.047C55.6224 206.334 55.0633 206.294 55.0633 207.829C55.0633 208.672 58.8494 211.251 59.6398 210.948ZM40.9263 212.046C41.9498 211.653 41.4942 210.537 39.6691 208.965C38.6728 208.107 37.6765 207.405 37.4552 207.405C36.9445 207.405 36.5708 208.351 36.8227 209.007C37.171 209.916 40.3478 212.268 40.9263 212.046ZM191.455 213.463C192.672 212.423 193.447 211.481 193.379 211.124C193.166 210.005 191.837 210.328 190.06 211.93C188.187 213.619 188.01 214.036 188.867 214.747C189.325 215.126 189.76 214.911 191.455 213.463ZM168.214 214.832C169.693 213.997 170.146 213.538 170.146 212.872C170.146 211.668 169.381 211.693 167.117 212.971C165.814 213.707 165.19 214.293 165.19 214.782C165.19 215.971 166.17 215.987 168.214 214.832ZM68.1078 216.078C69.2828 215.627 68.6584 214.457 66.6321 213.313C64.0621 211.863 63.5063 211.863 63.5063 213.313C63.5063 214.093 67.3156 216.381 68.1078 216.078ZM48.6466 218.282C49.7185 217.871 49.2042 216.655 47.397 215.329C45.2727 213.769 44.4177 213.646 44.4177 214.899C44.4177 215.948 47.7604 218.622 48.6466 218.282ZM77.4557 219.384C77.4557 218.685 77.0809 218.357 75.5285 217.7C74.4687 217.251 73.4214 216.809 73.2011 216.717C72.6307 216.477 71.8961 217.485 72.1527 218.154C72.399 218.795 75.5556 220.253 76.6977 220.253C77.2501 220.253 77.4557 220.017 77.4557 219.384ZM159.775 219.155C161.172 218.537 161.519 218.204 161.519 217.483C161.519 216.295 160.453 216.311 158.1 217.536C156.697 218.266 156.357 218.621 156.45 219.262C156.592 220.251 157.356 220.226 159.775 219.155ZM183.341 219.7C184.831 218.674 185.38 218.065 185.38 217.439C185.38 216.259 184.486 216.365 182.362 217.799C180.369 219.143 179.991 219.794 180.757 220.56C181.238 221.041 181.539 220.941 183.341 219.7ZM54.5317 222.769C57.8337 224.744 58.9559 223.433 55.8892 221.184C53.8156 219.662 52.4937 219.481 52.4937 220.718C52.4937 221.336 53.0171 221.863 54.5317 222.769ZM148.487 223.329C150.214 223.258 152.525 222.022 152.525 221.168C152.525 220.198 151.521 220.131 149.222 220.949C147.706 221.488 147.386 221.756 147.386 222.487C147.386 223.237 147.556 223.366 148.487 223.329ZM86.4494 222.65C86.4494 222.13 85.9828 221.747 84.7975 221.293C82.4459 220.392 81.1266 220.421 81.1266 221.373C81.1266 222.267 83.194 223.271 85.1646 223.333C86.2122 223.366 86.4494 223.24 86.4494 222.65ZM175.112 224.933C176.47 224.122 177.12 223.496 177.12 223.003C177.12 221.945 175.957 221.993 173.896 223.135C172.464 223.928 172.16 224.271 172.245 224.997C172.395 226.286 172.865 226.276 175.112 224.933ZM95.7481 224.791C95.6563 224.313 95.0715 223.984 93.7864 223.685C91.2461 223.096 90.6801 223.105 90.4348 223.745C90.0846 224.657 90.973 225.327 93.1245 225.773C95.3102 226.227 95.9768 225.978 95.7481 224.791ZM139.36 225.856C141.535 225.69 143.348 224.895 143.348 224.106C143.348 223.196 141.828 223.02 139.677 223.68C138.483 224.047 138.209 224.3 138.209 225.037C138.209 225.826 138.357 225.932 139.36 225.856ZM66.076 227.612C66.076 227.076 65.4717 226.566 63.8841 225.765C62.1137 224.871 61.5791 224.601 61.3233 224.765C61.2123 224.836 61.1538 224.989 61.0696 225.209C60.7014 226.168 61.2161 226.804 63.1591 227.788C65.2063 228.826 66.076 228.773 66.076 227.612ZM104.798 227.465C105.675 227.128 105.482 225.8 104.528 225.603C101.652 225.009 100.205 224.993 99.9898 225.553C99.5599 226.673 100.145 227.166 102.206 227.424C103.325 227.564 104.492 227.582 104.798 227.465ZM131.697 227.361C133.615 227.073 133.804 226.962 133.804 226.127C133.804 225.362 133.62 225.201 132.703 225.161C132.097 225.135 130.941 225.217 130.133 225.345C128.975 225.527 128.64 225.751 128.547 226.403C128.389 227.515 129.144 227.744 131.697 227.361ZM112.232 228.254C114.607 228.15 114.715 228.106 114.715 227.228C114.715 226.35 114.607 226.305 112.232 226.201C109.641 226.088 109.018 226.456 109.532 227.795C109.704 228.246 110.262 228.34 112.232 228.254ZM121.403 228.324C123.825 228.317 124.572 227.986 124.384 227C124.273 226.42 123.859 226.293 121.773 226.201C119.806 226.115 119.249 226.21 119.076 226.66C118.601 227.898 119.205 228.329 121.403 228.324ZM166.29 229.585C168.083 228.78 168.494 228.434 168.494 227.728C168.494 226.579 167.403 226.603 165.098 227.803C163.938 228.407 163.354 228.946 163.354 229.416C163.354 230.586 163.98 230.622 166.29 229.585ZM74.8145 232.229C75.5358 231.507 74.9433 230.719 73.1013 229.949C70.8826 229.022 70.1411 228.933 69.8992 229.563C69.5181 230.556 69.8904 230.948 72.1054 231.882C74.0311 232.694 74.3134 232.73 74.8145 232.229ZM157.365 233.334C159.153 232.641 159.5 232.362 159.5 231.616C159.5 230.452 158.855 230.408 156.38 231.404C154.951 231.979 154.328 232.439 154.25 232.979C154.08 234.139 155.011 234.245 157.365 233.334ZM84.0633 234.783C84.0633 234.036 83.7553 233.793 82.1361 233.261C81.0763 232.912 80.029 232.561 79.8087 232.481C79.2273 232.267 78.507 233.279 78.764 233.948C79.0033 234.571 81.8409 235.671 83.2109 235.671C83.868 235.671 84.0633 235.467 84.0633 234.783ZM148.671 236.267C150.03 235.861 150.323 235.618 150.323 234.896C150.323 233.766 149.429 233.656 147.019 234.487C145.635 234.965 145.155 235.323 145.066 235.946C144.968 236.636 145.119 236.771 145.984 236.767C146.553 236.763 147.762 236.539 148.671 236.267ZM93.4241 237.163C93.4241 236.399 93.1583 236.201 91.5886 235.794C88.769 235.063 88.1013 235.142 88.1013 236.207C88.1013 236.959 88.3634 237.182 89.6614 237.536C90.5193 237.769 91.7171 237.982 92.3228 238.008C93.2581 238.05 93.4241 237.922 93.4241 237.163ZM139.082 238.548C141 238.105 141.642 237.407 140.923 236.542C140.693 236.265 140.401 236.056 140.275 236.079C136.07 236.828 135.236 237.241 135.665 238.359C135.944 239.086 136.595 239.123 139.082 238.548ZM103.01 239.181C103.146 238.827 103.029 238.337 102.743 238.064C102.463 237.796 101.225 237.465 99.9905 237.328C98.049 237.112 97.7139 237.166 97.4995 237.725C97.1074 238.746 98.031 239.316 100.492 239.574C102.441 239.778 102.803 239.721 103.01 239.181ZM128.589 239.892C131.108 239.892 132.046 239.452 131.661 238.449C131.346 237.626 127.299 237.64 126.472 238.467C125.439 239.499 126.023 239.892 128.589 239.892ZM112.573 239.868C112.694 239.551 112.622 239.12 112.412 238.91C112.202 238.7 110.966 238.443 109.667 238.339C107.647 238.177 107.268 238.243 107.057 238.792C106.612 239.95 107.492 240.443 110 240.443C111.797 240.443 112.404 240.307 112.573 239.868ZM119.386 240.733C121.663 240.568 122.473 240.109 122.117 239.183C121.79 238.332 116.911 238.351 116.584 239.205C116.136 240.371 117.102 240.898 119.386 240.733Z" fill="white"/>
</svg>
