<svg width="156" height="162" viewBox="0 0 156 162" fill="none" xmlns="http://www.w3.org/2000/svg">
<path fill-rule="evenodd" clip-rule="evenodd" d="M73.7832 1.6045C75.3257 1.42559 75.8272 1.00035 75.2775 0.33788C75.1232 0.152083 74.8168 0.0199333 74.5965 0.0442962C74.376 0.068659 73.6796 0.129689 73.0484 0.179891C71.7965 0.279558 71.3295 0.807172 71.9464 1.42436C72.2169 1.69457 72.6453 1.73665 73.7832 1.6045ZM81.8599 1.1042C81.9386 0.899456 81.866 0.567236 81.6989 0.365935C81.4947 0.119599 80.9324 0 79.979 0C78.4813 0 77.8789 0.355599 78.1555 1.07615C78.3711 1.63822 81.6455 1.66282 81.8599 1.1042ZM87.3078 1.96601C88.2159 1.96896 88.6219 1.38794 88.0721 0.872386C87.5741 0.405309 84.9978 0.201793 84.6646 0.603165C84.0102 1.39188 85.1097 1.95862 87.3078 1.96601ZM66.9008 2.30315C68.5853 2.11415 69.2065 1.82426 69.1021 1.27548C69.0435 0.966884 68.7418 0.852699 67.9184 0.827844C65.9401 0.767799 65.0306 1.20534 65.3584 2.05977C65.4851 2.39002 65.7518 2.4321 66.9008 2.30315ZM94.4459 2.85537C95.002 2.31595 94.5145 1.76692 93.2356 1.49253C91.5698 1.13546 91.0636 1.16253 90.8886 1.61877C90.6649 2.20151 91.2693 2.61273 92.7757 2.90238C93.8149 3.1022 94.2027 3.09113 94.4459 2.85537ZM60.8842 3.42876C62.3585 3.099 62.8957 2.6964 62.6649 2.09496C62.3986 1.40074 59.2507 2.02901 59.101 2.80616C58.9482 3.59955 59.4064 3.7595 60.8842 3.42876ZM100.852 3.88673C100.793 3.4797 100.5 3.2629 99.6932 3.0301C99.0989 2.85857 98.4345 2.66293 98.2167 2.59526C97.6477 2.41857 97.1423 2.81206 97.2449 3.35174C97.3057 3.67116 97.774 3.95416 98.7586 4.26645C100.387 4.7825 100.967 4.67742 100.852 3.88673ZM55.0246 5.02736C56.1625 4.69661 56.3544 4.55462 56.3544 4.043C56.3544 3.55033 56.2356 3.44869 55.6777 3.46469C55.3056 3.47527 54.5302 3.65073 53.9551 3.85425C53.1152 4.15153 52.9092 4.34175 52.9092 4.81917C52.9092 5.52913 53.2003 5.55768 55.0246 5.02736ZM107.049 6.13845C107.049 5.77941 106.745 5.49862 106.003 5.17206C104.316 4.42961 103.63 4.31985 103.46 4.76453C103.212 5.41003 103.453 5.70779 104.599 6.17241C106.141 6.79772 107.049 6.78517 107.049 6.13845ZM48.7815 7.29975C50.3149 6.62152 50.6223 6.2893 50.1934 5.77227C49.8045 5.30396 49.5882 5.33005 48.0489 6.02943C47.0904 6.46501 46.757 6.74924 46.757 7.13044C46.757 7.91398 47.2917 7.95853 48.7815 7.29975ZM112.955 8.78736C112.955 8.34809 112.655 8.07616 111.596 7.55691C109.823 6.68748 109.51 6.70618 109.51 7.68118C109.51 7.99864 109.915 8.33209 110.802 8.74503C112.448 9.5116 112.955 9.52144 112.955 8.78736ZM43.0892 9.95456C44.0795 9.45278 44.3118 9.21949 44.25 8.78809C44.1428 8.03752 43.6415 8.04023 42.1428 8.79892C41.1501 9.30168 40.8508 9.58395 40.8508 10.0176C40.8508 10.7733 41.5101 10.7548 43.0892 9.95456ZM76.2697 9.6873C76.8876 9.56352 77.0358 9.42177 76.9772 9.01056C76.9113 8.54791 76.7178 8.48196 75.2383 8.41724C73.9173 8.35941 73.5438 8.4229 73.4279 8.72485C73.0359 9.74636 74.127 10.1157 76.2697 9.6873ZM82.087 9.7973C83.1976 9.72717 83.3012 9.66811 83.3012 9.1053C83.3012 8.51223 83.2367 8.48737 81.5171 8.41773C79.7543 8.34636 79.7329 8.35301 79.7329 8.96675C79.7329 9.70896 80.3036 9.91026 82.087 9.7973ZM68.4128 10.3709C70.036 10.2654 70.6276 9.99073 70.6276 9.34278C70.6276 8.92147 70.4613 8.86118 69.3356 8.87472C67.5783 8.89613 66.8807 9.20079 66.9806 9.90362C67.0532 10.4157 67.1644 10.4519 68.4128 10.3709ZM89.6995 9.84603C89.6995 9.36419 89.5415 9.19931 88.9613 9.07528C88.5552 8.98841 87.7522 8.90425 87.1771 8.88825C86.2198 8.86167 86.1312 8.91089 86.1312 9.46976C86.1312 10.1588 86.5046 10.3074 88.4691 10.4005C89.6319 10.4556 89.6995 10.4251 89.6995 9.84603ZM63.1834 11.3398C64.0536 11.1028 64.2293 10.9532 64.2293 10.4492C64.2293 9.94767 64.1129 9.84702 63.5526 9.86326C63.1805 9.87433 62.3775 10.0126 61.7684 10.1709C60.8281 10.4155 60.661 10.5516 60.661 11.074C60.661 11.6006 60.7673 11.6846 61.3993 11.6568C61.8053 11.639 62.6083 11.4963 63.1834 11.3398ZM96.2209 11.235C96.2209 10.7337 95.7595 10.4443 94.4508 10.1251C92.9587 9.76138 92.7887 9.7695 92.6186 10.2127C92.3563 10.8958 92.7183 11.2278 94.0831 11.5551C95.5291 11.9021 96.2209 11.7985 96.2209 11.235ZM116.994 12.0264C119.12 13.1424 119.551 11.9823 117.507 10.6448C116.145 9.75325 115.545 9.64473 115.313 10.2484C115.112 10.7718 115.613 11.3019 116.994 12.0264ZM37.2852 13.2239C38.0764 12.7063 38.513 12.2466 38.513 11.9319C38.513 11.1852 37.6812 11.2542 36.3597 12.1103C35.5102 12.6606 35.1908 13.026 35.1908 13.4473C35.1908 14.2582 35.8045 14.1927 37.2852 13.2239ZM58.0771 12.0973C58.0771 11.8342 57.9019 11.5517 57.6878 11.4695C57.4737 11.3873 57.28 11.3275 57.2571 11.3363C57.2345 11.3455 56.5791 11.5883 55.8007 11.8763C54.6082 12.3175 54.3857 12.4942 54.3857 12.9999C54.3857 13.5512 54.4603 13.5895 55.3086 13.4746C56.8058 13.2718 58.0771 12.6394 58.0771 12.0973ZM102.329 13.0024C102.271 12.6091 101.924 12.3532 101.02 12.036C99.159 11.3833 98.6818 11.4404 98.6818 12.3155C98.6818 12.6047 99.143 12.9091 100.153 13.2871C101.793 13.9001 102.448 13.8145 102.329 13.0024ZM123.903 16.154C124.671 15.8595 124.293 15.0365 122.986 14.1568C122.278 13.6794 121.57 13.2888 121.413 13.2888C121.176 13.2888 120.83 13.8076 120.83 14.1622C120.83 14.4831 123.592 16.2734 123.903 16.154ZM48.5763 15.9739C49.0953 16.4046 51.7742 15.0715 51.8805 14.3298C51.9462 13.8713 51.8451 13.783 51.2653 13.7926C50.3819 13.8071 48.2335 14.9145 48.2335 15.3552C48.2335 15.5391 48.3878 15.8174 48.5763 15.9739ZM108.279 15.6235C108.279 15.1091 108.047 14.9024 106.895 14.393C105.088 13.5937 104.834 13.6159 104.834 14.5739C104.834 14.9007 105.237 15.2169 106.195 15.6402C107.928 16.407 108.279 16.4043 108.279 15.6235ZM31.7519 17.0508C32.5965 16.4201 32.976 15.9623 32.976 15.5743C32.976 14.7629 32.3248 14.8687 30.9457 15.9038C30.1186 16.5246 29.7768 16.9543 29.7768 17.3729C29.7768 18.2104 30.3162 18.1225 31.7519 17.0508ZM44.6339 18.4099C45.698 17.7989 46.0207 17.4841 45.9668 17.1098C45.8632 16.3905 45.3159 16.406 43.9269 17.1672C43.1003 17.6202 42.6706 18.0236 42.6177 18.3962C42.4927 19.2762 43.1185 19.2806 44.6339 18.4099ZM114.141 18.6422C114.088 18.2689 113.66 17.868 112.832 17.4165C111.293 16.5773 110.74 16.5458 110.74 17.2974C110.74 17.7241 111.079 18.0553 112.135 18.6617C113.641 19.5269 114.266 19.521 114.141 18.6422ZM129.617 20.0127C129.729 19.7189 129.403 19.2575 128.484 18.4131C127.086 17.1273 126.981 17.0793 126.539 17.5216C126.038 18.0223 126.199 18.3327 127.507 19.3975C128.875 20.5106 129.37 20.6548 129.617 20.0127ZM25.0014 22.3141C25.5446 22.5226 27.9365 20.1306 27.7281 19.5875C27.4884 18.9631 26.9756 19.1221 25.751 20.2002C24.587 21.225 24.2966 22.0437 25.0014 22.3141ZM37.5311 22.578C38.2167 22.6631 40.4106 21.0015 40.3099 20.4734C40.1743 19.761 39.3014 19.8995 38.0705 20.829C36.8492 21.7511 36.6287 22.466 37.5311 22.578ZM119.526 22.8196C120.012 22.3336 119.757 21.8946 118.433 20.9353C117.166 20.0179 116.399 19.9416 116.403 20.733C116.405 21.1255 116.806 21.5643 117.779 22.2398C119.007 23.0923 119.191 23.1536 119.526 22.8196ZM134.223 25.0194C134.878 24.7679 134.661 24.149 133.47 22.8757C132.307 21.6327 132.256 21.6022 131.719 21.8188C131.119 22.0612 131.428 22.7975 132.623 23.975C133.422 24.7617 133.967 25.1176 134.223 25.0194ZM21.6997 26.1113C22.3656 25.3868 22.8762 24.6153 22.8341 24.3968C22.6889 23.6423 22.0156 23.8613 20.8534 25.0413C19.5823 26.3318 19.4841 26.5951 20.0878 27.0959C20.4385 27.387 20.6393 27.2645 21.6997 26.1113ZM33.7076 25.8896C34.6622 25.0349 34.9885 24.586 34.8736 24.2866C34.6314 23.6551 34.1412 23.7799 32.8805 24.7935C32.0049 25.4973 31.7487 25.8578 31.8006 26.3126C31.9072 27.2487 32.2835 27.1653 33.7076 25.8896ZM124.501 27.0698C125.397 27.0698 125.084 26.1908 123.81 25.124C122.429 23.9674 121.814 23.8374 121.814 24.7024C121.814 25.3989 123.711 27.0698 124.501 27.0698ZM138.779 30.1555C139.28 29.8457 139.034 29.0019 138.127 27.9164C137.202 26.8102 136.433 26.523 136.178 27.1879C135.941 27.8066 138.273 30.4681 138.779 30.1555ZM28.74 30.4393C29.9124 29.2667 30.0632 29.0147 29.7898 28.6852C29.6141 28.4735 29.3272 28.3003 29.1525 28.3003C28.6994 28.3003 26.8237 30.4971 26.8237 31.0274C26.8237 31.951 27.4072 31.7718 28.74 30.4393ZM129.901 31.196C129.9 30.9378 129.65 30.6809 128.794 29.7662C127.702 28.5985 127.259 28.3517 126.9 28.7105C126.506 29.104 126.815 29.7502 127.913 30.832C129.168 32.0681 129.547 32.2239 129.786 31.6023C129.853 31.4273 129.902 31.3115 129.901 31.196ZM15.9606 32.4698C16.4772 32.4518 18.2106 30.1912 18.2106 29.5354C18.2106 28.6123 17.3254 28.9876 16.267 30.3595C15.2391 31.6919 15.1219 32.4988 15.9606 32.4698ZM142.831 35.6032C143.456 35.363 143.291 34.6676 142.3 33.3636C141.266 32.0034 140.839 31.7544 140.601 32.3723C140.295 33.1701 142.154 35.8631 142.831 35.6032ZM24.7531 34.9142C25.2945 34.1328 25.3565 33.899 25.1028 33.5934C24.9335 33.3891 24.7111 33.2221 24.6089 33.2221C24.3857 33.2221 22.148 35.9054 22.148 36.1732C22.148 36.2765 22.3173 36.5014 22.5243 36.6732C22.8363 36.9323 23.0027 36.8898 23.4981 36.4244C23.8266 36.1158 24.3914 35.4361 24.7531 34.9142ZM133.747 37.0903C134.559 37.001 134.439 36.3324 133.369 34.9887C131.577 32.738 130.594 33.6286 132.335 35.9261C132.961 36.7532 133.415 37.1268 133.747 37.0903ZM13.3789 36.6631C14.1607 35.4494 14.2759 35.1214 14.0254 34.8197C13.8578 34.6176 13.6407 34.4525 13.543 34.4525C13.043 34.4525 11.2295 37.3069 11.4178 37.7976C11.7033 38.5415 12.445 38.1123 13.3789 36.6631ZM97.1263 47.3901C99.6524 44.3256 98.3894 39.39 94.7692 38.1778C92.1476 37.3 89.0769 38.3021 87.7345 40.4733C87.0779 41.5354 86.9933 41.8883 86.9982 43.5386C87.0095 47.2518 89.0543 49.2262 92.8738 49.2124C94.7323 49.2058 96.12 48.611 97.1263 47.3901ZM146.441 41.5891C147.155 41.5891 147.038 40.7081 146.125 39.2018C145.295 37.832 144.454 37.4395 144.454 38.4214C144.454 39.2827 145.901 41.5891 146.441 41.5891ZM35.0677 40.7278V39.4973V38.2669L31.1918 38.1992L27.3159 38.1313V39.4776V40.8237L28.4848 40.8988L29.6538 40.9739L29.7214 44.9728L29.7891 48.9718H31.2595H32.7299V44.9248V40.8779L33.8988 40.8028L35.0677 40.7278ZM43.0656 40.8508V39.4973V38.1438H39.8665H36.6673V43.5578V48.9718H39.8665H43.0656V47.7526V46.5333L41.4045 46.4607L39.7434 46.3878V45.5265V44.6652L40.9739 44.6411C42.0602 44.6198 42.5076 44.6225 42.6917 44.4036C42.8296 44.2396 42.8195 43.9511 42.8195 43.4348V42.3274H41.22H39.6204V41.5891V40.8508H41.343H43.0656ZM53.8881 41.8189C53.8785 40.7408 52.9951 39.1863 52.1288 38.7221C51.508 38.3894 50.5795 38.2602 48.295 38.1881L45.2804 38.0931V43.5325V48.9718H46.88H48.4796V47.2491C48.4796 46.0413 48.5716 45.5231 48.7872 45.5149C50.3664 45.4552 51.5779 45.2223 52.1886 44.8618C52.9892 44.3888 53.8967 42.7642 53.8881 41.8189ZM62.5237 44.9024C64.7557 43.7483 64.7948 40.1556 62.5911 38.7108C62.0541 38.3589 61.2863 38.2489 58.8879 38.18L55.8623 38.0931V43.5325V48.9718H57.3388H58.8153V47.2841V45.5967L60.298 45.4416C61.1136 45.3565 62.1151 45.1138 62.5237 44.9024ZM69.2741 44.4191L69.2052 41.2815L69.1363 38.1438H67.6672H66.198V43.5578V48.9718L67.7361 48.9641L69.2741 48.9568L70.6276 46.8313C71.372 45.6624 72.1967 44.3367 72.4602 43.8858C72.7236 43.4348 73.0282 43.0656 73.137 43.0656C73.2455 43.0656 73.3346 44.3945 73.3346 46.0187V48.9718H74.8111H76.2877V43.5578V38.1438H74.8365H73.3853L71.3297 41.2815L69.2741 44.4191ZM85.6391 40.8508V39.4973V38.1438H81.8247H78.0103V39.4973V40.8508H79.1177H80.2251V44.9113V48.9718H81.8247H83.4243V44.9113V40.8508H84.5317H85.6391ZM108.414 39.7264C108.183 39.3748 107.533 38.8772 106.968 38.6208C106.158 38.2531 105.356 38.1534 103.173 38.1493L100.404 38.1438V43.5578V48.9718H102.004H103.604V47.2491C103.604 46.0413 103.696 45.5231 103.911 45.5149C106.672 45.4104 107.97 44.8301 108.65 43.3961C109.151 42.3402 109.045 40.6899 108.414 39.7264ZM114.124 44.0468C114.022 44.0485 113.939 42.7211 113.939 41.0969V38.1438H112.463H110.986V43.5696V48.9951L112.496 48.9221L114.006 48.8487L115.796 46.0531C116.781 44.5156 117.707 43.137 117.855 42.9893C118.048 42.7957 118.123 43.5905 118.123 45.8464V48.9718H119.599H121.076V43.5578V38.1438H119.589H118.102L116.205 41.0937C115.162 42.7162 114.226 44.0451 114.124 44.0468ZM131.412 48.9718V43.5578V38.1438L128.766 38.1493C124.657 38.1576 123.291 39.0465 123.291 41.7121C123.291 43.1451 123.81 44.158 124.762 44.5791C125.171 44.7602 125.506 44.9669 125.506 45.0383C125.506 45.1096 124.952 45.9274 124.275 46.8556C123.598 47.7839 123.045 48.6452 123.045 48.7692C123.045 48.8935 123.731 48.9622 124.569 48.9221L126.094 48.8487L127.09 47.1876C127.637 46.2739 128.169 45.5265 128.272 45.5265C128.375 45.5265 128.459 46.3017 128.459 47.2491V48.9718H129.935H131.412ZM18.7505 42.524C19.2557 42.6212 20.9176 40.2553 20.9176 39.439C20.9176 38.37 20.0322 38.7847 19.0852 40.2971C18.1562 41.7813 18.0644 42.3918 18.7505 42.524ZM138.302 42.4179C138.302 41.956 137.469 40.4933 136.743 39.6819C136.222 39.0994 136.029 39.0229 135.759 39.2923C135.418 39.6332 135.623 40.2828 136.463 41.5308C137.329 42.8168 138.302 43.2864 138.302 42.4179ZM8.70959 44.2173C9.21826 44.0219 10.3832 41.674 10.2887 41.0344C10.18 40.2993 9.68952 40.2336 9.26403 40.8971C8.32889 42.3549 7.77839 43.8059 8.05524 44.0827C8.20855 44.236 8.50312 44.2966 8.70959 44.2173ZM90.1322 43.862C90.0202 42.1174 90.6184 40.9896 91.8435 40.6365C92.2884 40.508 92.6839 40.3931 92.722 40.3808C93.0491 40.2762 94.5458 41.187 94.8768 41.6917C95.4661 42.5912 95.431 44.6549 94.812 45.4913C93.7627 46.9098 91.9301 47.0911 90.8003 45.8885C90.3662 45.4266 90.2001 44.9229 90.1322 43.862ZM49.111 43.0656C48.5175 43.0656 48.4796 42.992 48.4796 41.8352C48.4796 40.6072 48.4813 40.6047 49.2917 40.6047C50.2824 40.6047 50.6944 40.978 50.6944 41.8758C50.6944 42.6323 50.1178 43.0656 49.111 43.0656ZM59.5066 43.0656C58.8412 43.0656 58.8153 43.0196 58.8153 41.8352C58.8153 40.6101 58.819 40.6047 59.6151 40.6084C60.6984 40.6136 61.0917 40.9114 61.0917 41.7264C61.0917 42.538 60.4671 43.0656 59.5066 43.0656ZM104.235 43.0656C103.641 43.0656 103.604 42.992 103.604 41.8352C103.604 40.6072 103.605 40.6047 104.416 40.6047C105.406 40.6047 105.818 40.978 105.818 41.8758C105.818 42.6323 105.242 43.0656 104.235 43.0656ZM126.595 42.8774C126.085 42.5279 125.983 41.7714 126.367 41.1853C126.646 40.7595 126.975 40.6047 127.603 40.6047H128.459V41.8352C128.459 43.0602 128.455 43.0656 127.659 43.0619C127.219 43.0597 126.74 42.9768 126.595 42.8774ZM149.675 47.9874C150.32 47.9874 150.235 47.0131 149.448 45.4089C148.782 44.0505 148.107 43.6459 147.808 44.4253C147.586 45.0051 149.149 47.9874 149.675 47.9874ZM15.3609 48.7257C15.8477 48.7257 17.5257 45.7062 17.3269 45.1881C17.0094 44.3605 16.3411 44.7848 15.5088 46.3428C14.678 47.8981 14.6266 48.7257 15.3609 48.7257ZM141.068 48.9718C141.826 48.9718 141.813 48.3499 141.022 46.7826C140.477 45.7027 140.126 45.2804 139.775 45.2804C139.095 45.2804 139.148 45.9712 139.953 47.6129C140.398 48.5199 140.769 48.9718 141.068 48.9718ZM5.42947 50.6944C6.12368 50.6944 7.56183 47.6385 7.11862 47.1044C6.56738 46.4402 6.25633 46.7132 5.44522 48.5724C4.77388 50.1114 4.7697 50.6944 5.42947 50.6944ZM151.893 53.1553C152.673 53.1553 152.676 53.0406 151.943 51.2481C151.586 50.374 151.315 50.261 150.867 50.7995C150.643 51.0704 150.645 51.38 150.876 52.153C151.138 53.0268 151.268 53.1553 151.893 53.1553ZM14.0433 52.4977C14.1806 52.136 14.2368 51.693 14.1679 51.5134C13.9252 50.8807 13.102 51.1546 12.8208 51.9615C12.4408 53.0514 12.4713 53.1553 13.1719 53.1553C13.6188 53.1553 13.8634 52.9707 14.0433 52.4977ZM143.117 53.1553C143.72 53.1553 143.857 52.8245 143.567 52.0681C143.4 51.6347 142.6 51.5412 142.361 51.9271C142.056 52.4219 142.507 53.1553 143.117 53.1553ZM155.528 56.8466V55.6162V54.3857H77.7642H0V55.6162V56.8466H77.7642H155.528ZM104.096 64.7215V62.7528V60.784H102.496H100.897V62.7154V64.6467L98.3742 64.8012C93.5676 65.0958 90.16 66.3929 87.5869 68.9077C85.2195 71.2214 84.0611 74.1341 84.0648 77.7642C84.069 81.7528 85.3711 84.9333 87.9582 87.2743C90.5963 89.6616 93.6025 90.7582 98.1281 90.9836L100.897 91.1217V93.5565V95.9915L102.488 95.9477L104.079 95.9039L104.149 93.54L104.219 91.1761L106.926 91.0215C110.261 90.8311 111.528 90.5271 114.127 89.2937C116.718 88.0645 118.487 86.3439 119.704 83.8709C121.88 79.4499 121.354 73.7862 118.415 69.9875C115.96 66.8142 110.736 64.7215 105.271 64.7215H104.096ZM71.7769 75.3826C70.3444 68.6739 65.8508 63.7423 59.5071 61.9163C55.2992 60.7051 50.1956 60.9374 46.4134 62.5118C42.3397 64.2076 38.8073 67.6056 37.2087 71.3659C36.038 74.1189 35.8237 75.3041 35.8281 78.9947C35.8318 82.2096 35.8978 82.7581 36.4943 84.5317C39.1159 92.329 45.3769 96.7062 53.9157 96.7114C59.2701 96.7146 63.3512 95.1231 66.8373 91.6722C69.0583 89.4739 70.2383 87.5672 71.2492 84.5437C72.1022 81.9928 72.333 77.9862 71.7769 75.3826ZM6.35525 77.272C6.24353 77.272 6.15223 73.8391 6.15223 69.6433V62.0145H4.55265H2.95307V79.0065V95.9982L4.49113 95.9251L6.02919 95.8518L6.15223 87.7562L6.27528 79.6603L9.35139 82.969C11.0433 84.7888 14.144 88.1524 16.2419 90.4432C18.3398 92.7341 20.3602 94.9238 20.7315 95.3091C21.3788 95.9807 21.4836 96.0053 23.2581 95.9059C24.2765 95.8491 25.1629 95.7489 25.2283 95.6837C25.2935 95.6182 21.7757 91.7687 17.4108 87.1286C13.0457 82.4886 9.44441 78.6144 9.4075 78.5195C9.37059 78.4245 12.8313 74.7841 17.0978 70.4298C21.3642 66.0755 24.855 62.4006 24.855 62.2635C24.855 62.1181 24.1047 62.0145 23.0519 62.0145H21.2491L19.4177 63.9217C10.2883 73.4284 6.52752 77.272 6.35525 77.272ZM152.575 64.7215V63.368V62.0145H143.468H134.361L134.425 78.9331L134.488 95.8518H143.47H152.452L152.527 94.5598L152.601 93.2678H145.205H137.81V85.7621V78.2564H144.947H152.083V76.9029V75.5494H144.947H137.81V70.1354V64.7215H145.193H152.575ZM39.1892 78.1353C39.5611 70.8503 44.3711 65.2363 51.3143 63.9837C52.971 63.6847 56.4206 63.8818 58.0771 64.3701C62.7688 65.7528 66.2753 69.1848 67.8453 73.9306C68.414 75.6496 68.5041 76.3349 68.5117 78.9947C68.5196 81.8043 68.4559 82.2529 67.7752 84.1734C66.056 89.0235 62.4321 92.4319 57.7178 93.6325C56.9091 93.8385 55.1931 94.0061 53.8935 94.0061C49.5287 94.0061 46.5192 92.7884 43.5578 89.8243C40.4251 86.6886 38.9537 82.7517 39.1892 78.1353ZM87.5906 76.2916C88.3854 71.168 91.4455 68.4428 97.2131 67.7218C98.2241 67.5953 99.4663 67.4777 99.9738 67.4602L100.897 67.4285V77.9244V88.4204L98.6203 88.2663C96.0189 88.0904 93.1148 87.3541 91.6476 86.4984C90.3207 85.7245 88.9187 84.1453 88.3209 82.7505C87.592 81.05 87.28 78.2918 87.5906 76.2916ZM104.096 88.4204V77.9244V67.4285H104.656C107.602 67.4285 111.922 68.5861 113.801 69.8788C117.415 72.365 118.667 78.1794 116.617 82.9466C115.293 86.0242 111.661 87.9102 106.372 88.2668L104.096 88.4204ZM155.528 103.111V102.004V100.897H77.7642H0V102.004V103.111H77.7642H155.528ZM4.35873 107.717C4.69341 107.383 4.68259 107.192 4.25464 105.904C3.84588 104.674 3.68076 104.454 3.11869 104.387C2.75694 104.344 2.46089 104.36 2.46089 104.423C2.46089 104.877 3.51169 107.799 3.72161 107.929C3.86631 108.018 4.153 107.923 4.35873 107.717ZM143.131 109.624C143.63 109.31 144.718 106.643 144.539 106.176C144.464 105.979 144.21 105.818 143.975 105.818C143.39 105.818 142.046 109.168 142.463 109.586C142.655 109.778 142.869 109.79 143.131 109.624ZM13.6616 110.248C14.2685 110.248 14.2572 109.475 13.6274 107.902C13.1677 106.754 12.8646 106.311 12.539 106.311C11.7899 106.311 11.7389 106.761 12.3217 108.232C12.9635 109.851 13.2275 110.248 13.6616 110.248ZM152.399 108.93C152.657 108.157 152.805 107.362 152.729 107.164C152.503 106.573 151.843 106.753 151.575 107.479C151.437 107.852 151.146 108.632 150.928 109.213C150.623 110.027 150.598 110.338 150.822 110.562C151.311 111.051 151.893 110.45 152.399 108.93ZM74.8111 112.041C74.8111 111.107 74.3591 110.169 73.6208 109.571C73.1279 109.172 72.9692 109.183 72.5877 109.643C72.3266 109.958 72.3635 110.145 72.8038 110.74C73.4958 111.677 73.4781 112.745 72.756 113.613C71.845 114.708 71.612 115.3 71.612 116.519C71.612 118.258 72.7683 120.047 73.6681 119.702C74.2099 119.494 74.1784 118.95 73.5807 118.19C72.8771 117.296 72.9185 115.658 73.6671 114.758C74.5495 113.697 74.8111 113.076 74.8111 112.041ZM78.1949 114.481C79.3596 112.79 79.4233 111.472 78.405 110.137C77.2359 108.604 76.2877 109.287 77.2381 110.978C77.9264 112.203 77.905 112.464 77.0254 113.571C75.652 115.299 75.4852 117.085 76.536 118.808C77.1345 119.789 77.6798 120.035 78.1693 119.546C78.4946 119.221 78.4643 119.073 77.9042 118.247C77.0264 116.954 77.0939 116.08 78.1949 114.481ZM82.0341 114.758C83.3933 113.124 83.5596 111.662 82.5541 110.182C81.8805 109.191 81.4504 109.046 80.9548 109.643C80.6936 109.958 80.7306 110.145 81.1708 110.74C81.8628 111.677 81.8451 112.745 81.1231 113.613C80.2305 114.686 79.979 115.297 79.979 116.392C79.979 118.161 81.1775 120.099 82.0617 119.76C82.5809 119.561 82.5356 118.937 81.9477 118.19C81.2442 117.296 81.2855 115.658 82.0341 114.758ZM7.01797 114.409C7.35216 114.075 7.31746 113.855 6.69117 112.326C5.99104 110.618 5.32611 110.042 5.00865 110.869C4.83836 111.312 5.76095 113.833 6.30948 114.423C6.60331 114.739 6.69018 114.737 7.01797 114.409ZM141.049 114.585C141.483 113.706 141.756 112.84 141.67 112.616C141.37 111.835 140.763 112.23 140.028 113.686C139.148 115.43 139.075 116.154 139.781 116.154C140.144 116.154 140.482 115.736 141.049 114.585ZM17.148 116.338C17.5031 115.983 17.4576 115.806 16.6315 114.329C15.7391 112.733 15.1431 112.326 14.8434 113.107C14.6876 113.512 15.8513 115.954 16.4388 116.454C16.6775 116.658 16.8576 116.628 17.148 116.338ZM148.619 117.273C149.063 116.999 150.114 114.747 150.114 114.07C150.114 113.612 149.985 113.447 149.625 113.447C149.259 113.447 148.946 113.864 148.388 115.094C147.742 116.52 147.689 116.787 147.993 117.091C148.187 117.285 148.468 117.367 148.619 117.273ZM9.87778 120.83C10.5383 120.83 10.4546 119.961 9.65334 118.495C8.97069 117.246 8.23538 116.8 7.97575 117.476C7.75427 118.054 9.32875 120.83 9.87778 120.83ZM108.256 119.76C107.678 119.264 106.809 118.749 106.327 118.616C105.154 118.29 104.627 118.318 103.605 118.761C102.514 119.234 101.635 120.055 101.635 120.6C101.635 121.355 102.356 121.338 103.427 120.558C104.702 119.629 105.883 119.688 107.197 120.746C108.68 121.939 109.558 122.306 110.933 122.306C112.987 122.307 115.17 121.14 115.17 120.041C115.17 119.3 114.495 119.256 113.678 119.944C112.138 121.24 109.896 121.164 108.256 119.76ZM47.966 120.644C47.6158 120.408 46.7912 119.855 46.1336 119.415C44.2771 118.173 42.0832 118.395 40.5993 119.974C40.0198 120.591 40.0793 121.322 40.7091 121.322C40.9104 121.322 41.483 121.045 41.9816 120.707C43.3629 119.769 44.4506 119.874 45.9791 121.091C47.7955 122.537 49.24 122.861 51.2257 122.266C51.7523 122.108 52.5959 121.618 53.0999 121.177C53.9789 120.409 53.9986 120.358 53.5813 119.93C53.2249 119.565 53.0689 119.539 52.7199 119.785C50.844 121.11 49.1194 121.422 47.966 120.644ZM136.082 122.183C136.522 122.183 138.302 119.683 138.302 119.065C138.302 118.76 138.121 118.615 137.739 118.615C137.321 118.615 136.967 118.959 136.364 119.954C135.543 121.309 135.432 122.183 136.082 122.183ZM20.4869 122.55C21.1836 122.554 21.004 121.567 20.0496 120.15C19.1809 118.86 18.5657 118.537 18.2992 119.231C18.1013 119.747 19.9475 122.548 20.4869 122.55ZM144.947 123.479C145.426 123.57 146.975 121.003 146.87 120.291C146.729 119.331 146.224 119.55 145.319 120.964C144.416 122.376 144.272 123.351 144.947 123.479ZM88.5921 122.479C88.5921 121.897 88.4592 121.288 88.2968 121.125C87.9493 120.778 67.2793 120.698 66.7365 121.042C66.4803 121.205 66.4296 122.589 66.4904 127.758L66.5671 134.27L67.4907 136.137C68.4898 138.157 70.5727 140.348 72.3621 141.261C75.5088 142.867 79.2535 142.853 82.6033 141.224C84.4057 140.348 86.6392 137.969 87.4869 136.023C88.1639 134.47 88.2454 134.383 89.1948 134.225C93.26 133.549 95.2055 129.358 93.0397 125.943C92.3049 124.784 90.2934 123.537 89.1591 123.537C88.6551 123.537 88.5921 123.419 88.5921 122.479ZM68.5359 133.996L68.4576 128.397L68.3796 122.799H77.5014H86.6234V127.318C86.6234 132.172 86.415 133.869 85.6159 135.52C84.8806 137.039 83.0482 138.747 81.2095 139.628C79.7804 140.312 79.3736 140.393 77.3951 140.388C75.5265 140.383 74.962 140.281 73.7837 139.733C71.9216 138.868 70.3857 137.407 69.3701 135.534L68.5359 133.996ZM13.7438 126.882C14.2449 126.572 14.0487 125.777 13.1308 124.394C12.1607 122.933 12.0315 122.853 11.561 123.42C11.3063 123.727 11.3295 123.944 11.6868 124.608C12.397 125.927 13.4343 127.073 13.7438 126.882ZM46.9014 125.737C46.4469 125.338 45.6783 124.846 45.1933 124.643C43.686 124.013 42.4593 124.233 40.9197 125.407C40.036 126.081 39.9159 126.513 40.4812 126.982C40.7836 127.233 41.0073 127.167 41.7289 126.617C43.3846 125.354 44.3148 125.492 46.6438 127.345C47.4123 127.957 47.8321 128.092 49.1908 128.166C50.6058 128.244 50.9936 128.163 52.1709 127.545C53.1304 127.042 53.5483 126.67 53.6069 126.265C53.7523 125.257 53.2653 125.116 52.1963 125.857C50.3051 127.168 48.4835 127.127 46.9014 125.737ZM108.849 125.961C108.468 125.603 107.769 125.077 107.295 124.793C105.976 124.002 104.239 124.089 102.774 125.018C101.868 125.593 101.62 125.885 101.68 126.308C101.784 127.035 102.537 127.145 103.195 126.529C104.515 125.292 105.838 125.379 107.601 126.816C108.913 127.885 110.345 128.328 111.791 128.111C113.218 127.897 115.17 126.675 115.17 125.995C115.17 125.194 114.56 125.167 113.425 125.918C112.579 126.478 112.101 126.613 110.959 126.613C109.765 126.613 109.433 126.51 108.849 125.961ZM131.918 127.664C132.386 127.755 134.411 125.316 134.31 124.784C134.151 123.948 133.269 124.268 132.317 125.51C131.368 126.746 131.223 127.53 131.918 127.664ZM24.7098 127.916C25.5586 127.795 25.4149 127.17 24.226 125.813C23.0997 124.527 22.8708 124.373 22.5583 124.685C21.962 125.282 23.8032 128.047 24.7098 127.916ZM88.5921 132.405V128.925V125.444L89.3853 125.603C90.4467 125.815 91.7477 127.115 91.9436 128.159C92.2842 129.974 91.0776 131.817 89.2689 132.245L88.5921 132.405ZM140.929 129.376C141.323 129.506 143.224 126.944 143.224 126.283C143.224 125.356 142.396 125.682 141.415 126.996C140.508 128.212 140.311 129.173 140.929 129.376ZM17.7595 132.396C18.4833 132.396 18.3007 131.519 17.2969 130.175C16.4336 129.019 15.718 128.651 15.3838 129.192C15.0587 129.718 17.0449 132.396 17.7595 132.396ZM127.32 132.642C128.032 132.642 130.005 130.602 129.887 129.988C129.738 129.215 129.074 129.424 127.902 130.614C126.605 131.931 126.401 132.642 127.32 132.642ZM29.6415 132.898C30.1932 132.441 30.1445 132.318 28.8618 130.938C27.7439 129.736 27.3395 129.502 26.9879 129.853C26.5914 130.25 26.9072 130.897 28.0419 132.015C29.0777 133.035 29.3174 133.167 29.6415 132.898ZM136.736 134.488C137.407 134.488 139.091 132.499 138.991 131.824C138.861 130.947 138.386 131.113 137.218 132.446C136.023 133.811 135.863 134.488 136.736 134.488ZM22.4997 137.481C23.1848 137.219 22.9146 136.466 21.709 135.278C20.4008 133.99 20.3614 133.972 19.9463 134.472C19.57 134.926 19.8377 135.425 21.1268 136.674C21.758 137.286 22.2526 137.576 22.4997 137.481ZM122.174 137.225C122.725 137.437 125.052 135.371 124.963 134.75C124.846 133.94 124.233 134.059 122.983 135.134C121.815 136.138 121.495 136.965 122.174 137.225ZM34.4363 137.508C35.1866 137.364 34.832 136.423 33.6377 135.389C32.9865 134.826 32.3684 134.365 32.2638 134.365C31.9512 134.365 31.7455 134.666 31.7455 135.123C31.7455 135.673 33.9264 137.606 34.4363 137.508ZM131.926 139.533C132.572 139.533 134.665 137.414 134.56 136.866C134.413 136.105 133.744 136.32 132.578 137.504C131.322 138.78 131.08 139.533 131.926 139.533ZM119.724 139.318C119.795 139.131 119.728 138.826 119.574 138.64C119.201 138.192 119.184 138.197 117.692 139.214C116.387 140.104 116.025 140.881 116.781 141.171C117.198 141.331 119.51 139.874 119.724 139.318ZM39.9814 141.415C40.7174 141.133 40.3355 140.391 38.9805 139.471C37.2882 138.322 36.9134 138.296 36.9134 139.325C36.9134 139.889 39.4516 141.619 39.9814 141.415ZM27.4362 142.152C28.1223 141.888 27.8169 141.14 26.5934 140.086C25.9255 139.511 25.2576 139.04 25.1092 139.04C24.7669 139.04 24.5164 139.675 24.6852 140.115C24.9188 140.723 27.0484 142.3 27.4362 142.152ZM128.348 143.101C129.164 142.404 129.683 141.773 129.637 141.533C129.495 140.783 128.604 141 127.413 142.074C126.157 143.206 126.039 143.486 126.613 143.962C126.92 144.217 127.212 144.072 128.348 143.101ZM112.768 144.02C113.759 143.459 114.062 143.152 114.062 142.706C114.062 141.899 113.55 141.915 112.032 142.772C111.158 143.265 110.74 143.658 110.74 143.986C110.74 144.783 111.397 144.794 112.768 144.02ZM45.6582 144.854C46.4459 144.552 46.0273 143.768 44.6689 143.001C42.946 142.029 42.5734 142.029 42.5734 143.001C42.5734 143.524 45.1271 145.058 45.6582 144.854ZM32.6118 146.332C33.3303 146.056 32.9856 145.242 31.7741 144.352C30.3499 143.307 29.7768 143.224 29.7768 144.064C29.7768 144.767 32.0177 146.56 32.6118 146.332ZM51.9248 147.071C51.9248 146.602 51.6736 146.382 50.6329 145.942C49.9224 145.641 49.2203 145.345 49.0727 145.283C48.6902 145.122 48.1978 145.798 48.3698 146.246C48.535 146.676 50.6511 147.654 51.4167 147.654C51.787 147.654 51.9248 147.496 51.9248 147.071ZM107.11 146.917C108.047 146.503 108.279 146.28 108.279 145.796C108.279 145 107.565 145.011 105.987 145.832C105.047 146.321 104.819 146.56 104.881 146.989C104.976 147.652 105.488 147.635 107.11 146.917ZM122.908 147.283C123.907 146.595 124.275 146.187 124.275 145.767C124.275 144.976 123.676 145.047 122.252 146.008C120.916 146.91 120.663 147.346 121.176 147.86C121.499 148.182 121.7 148.114 122.908 147.283ZM36.5571 149.34C38.7706 150.664 39.5229 149.785 37.4671 148.277C36.0769 147.257 35.1908 147.136 35.1908 147.965C35.1908 148.38 35.5417 148.733 36.5571 149.34ZM99.5431 149.715C100.701 149.668 102.25 148.839 102.25 148.267C102.25 147.617 101.577 147.572 100.035 148.12C99.0194 148.481 98.8048 148.661 98.8048 149.151C98.8048 149.654 98.9185 149.741 99.5431 149.715ZM57.954 149.26C57.954 148.912 57.6412 148.655 56.8466 148.351C55.2702 147.747 54.3857 147.766 54.3857 148.404C54.3857 149.004 55.7717 149.676 57.0927 149.718C57.795 149.74 57.954 149.656 57.954 149.26ZM117.391 150.791C118.302 150.247 118.738 149.828 118.738 149.497C118.738 148.788 117.958 148.82 116.577 149.585C115.617 150.117 115.413 150.347 115.47 150.834C115.57 151.698 115.885 151.691 117.391 150.791ZM64.1877 150.695C64.1262 150.375 63.7342 150.155 62.8726 149.954C61.1697 149.559 60.7902 149.566 60.6258 149.995C60.391 150.606 60.9866 151.055 62.4289 151.354C63.8941 151.658 64.341 151.491 64.1877 150.695ZM93.4241 151.409C94.8827 151.298 96.0979 150.765 96.0979 150.236C96.0979 149.626 95.0788 149.508 93.637 149.951C92.8362 150.197 92.6526 150.366 92.6526 150.861C92.6526 151.39 92.752 151.46 93.4241 151.409ZM44.2961 152.587C44.2961 152.227 43.891 151.886 42.8267 151.348C41.6398 150.749 41.2815 150.568 41.11 150.678C41.0356 150.726 40.9964 150.829 40.9399 150.976C40.6931 151.619 41.0381 152.045 42.3406 152.705C43.7131 153.4 44.2961 153.365 44.2961 152.587ZM70.2545 152.488C70.8422 152.262 70.7133 151.372 70.0739 151.24C68.1458 150.842 67.1752 150.831 67.0313 151.207C66.7431 151.957 67.1351 152.288 68.5167 152.461C69.2672 152.554 70.0493 152.567 70.2545 152.488ZM88.2875 152.418C89.573 152.225 89.6995 152.151 89.6995 151.591C89.6995 151.079 89.5762 150.97 88.9613 150.944C88.5552 150.926 87.78 150.981 87.2386 151.067C86.4625 151.189 86.2375 151.339 86.1755 151.777C86.0697 152.522 86.5757 152.675 88.2875 152.418ZM75.2383 153.017C76.8303 152.948 76.9029 152.918 76.9029 152.329C76.9029 151.741 76.8303 151.711 75.2383 151.641C73.5014 151.565 73.0833 151.812 73.4279 152.71C73.5438 153.012 73.9173 153.075 75.2383 153.017ZM81.3864 153.064C83.0101 153.059 83.5104 152.837 83.3844 152.177C83.3101 151.787 83.0327 151.702 81.6342 151.641C80.3154 151.583 79.9421 151.647 79.8262 151.949C79.508 152.778 79.9128 153.068 81.3864 153.064ZM111.478 153.909C112.68 153.37 112.955 153.138 112.955 152.665C112.955 151.894 112.224 151.91 110.679 152.715C109.901 153.119 109.51 153.481 109.51 153.796C109.51 154.58 109.929 154.604 111.478 153.909ZM50.1542 155.682C50.6378 155.198 50.2406 154.67 49.0057 154.154C47.5184 153.532 47.0213 153.472 46.8591 153.895C46.6036 154.561 46.8532 154.823 48.3381 155.449C49.6291 155.994 49.8183 156.018 50.1542 155.682ZM105.494 156.422C106.693 155.958 106.926 155.771 106.926 155.271C106.926 154.491 106.494 154.461 104.834 155.129C103.876 155.514 103.459 155.823 103.406 156.185C103.293 156.963 103.917 157.033 105.494 156.422ZM56.3544 157.394C56.3544 156.893 56.148 156.731 55.0625 156.374C54.352 156.14 53.6499 155.905 53.5023 155.851C53.1125 155.707 52.6296 156.386 52.8019 156.834C52.9623 157.252 54.8646 157.989 55.783 157.989C56.2235 157.989 56.3544 157.853 56.3544 157.394ZM99.6662 158.389C100.577 158.117 100.774 157.954 100.774 157.47C100.774 156.713 100.174 156.638 98.5587 157.196C97.6307 157.516 97.3089 157.756 97.2495 158.174C97.1841 158.637 97.2852 158.727 97.8648 158.724C98.2465 158.722 99.0571 158.571 99.6662 158.389ZM62.6297 158.99C62.6297 158.477 62.4515 158.344 61.3993 158.072C59.5091 157.582 59.0614 157.635 59.0614 158.349C59.0614 158.853 59.2371 159.002 60.1073 159.239C60.6824 159.396 61.4854 159.539 61.8914 159.556C62.5185 159.584 62.6297 159.499 62.6297 158.99ZM93.2381 159.918C94.5239 159.621 94.9538 159.153 94.4724 158.573C94.3181 158.387 94.1225 158.248 94.0376 158.263C91.2189 158.765 90.6598 159.042 90.9472 159.791C91.1345 160.279 91.5705 160.303 93.2381 159.918ZM69.0561 160.343C69.1471 160.105 69.0686 159.777 68.8772 159.594C68.6894 159.414 67.8591 159.192 67.0318 159.1C65.7302 158.956 65.5055 158.991 65.3618 159.366C65.099 160.051 65.7181 160.433 67.3682 160.606C68.6744 160.742 68.9173 160.704 69.0561 160.343ZM86.2036 160.819C87.8925 160.819 88.5213 160.524 88.2634 159.851C88.0517 159.3 85.3386 159.309 84.7844 159.864C84.0921 160.556 84.4837 160.819 86.2036 160.819ZM75.4667 160.803C75.5482 160.591 75.4995 160.302 75.3587 160.161C75.2179 160.02 74.3898 159.848 73.5184 159.778C72.1645 159.669 71.9102 159.713 71.769 160.082C71.471 160.858 72.0603 161.188 73.7416 161.188C74.9465 161.188 75.3538 161.097 75.4667 160.803ZM80.0341 161.383C81.5606 161.272 82.1033 160.965 81.865 160.344C81.646 159.773 78.3752 159.786 78.1555 160.358C77.8553 161.14 78.503 161.494 80.0341 161.383Z" fill="white"/>
</svg>
